<mxfile host="65bd71144e">
    <diagram id="LHlCjZmck7IQoDd8qsSH" name="Page-1">
        <mxGraphModel dx="493" dy="405" grid="1" gridSize="10" guides="1" tooltips="1" connect="1" arrows="1" fold="1" page="1" pageScale="1" pageWidth="827" pageHeight="1169" math="0" shadow="0">
            <root>
                <mxCell id="0"/>
                <mxCell id="1" parent="0"/>
                <mxCell id="2" value="{&lt;br&gt;name -&amp;gt; sharad&lt;br&gt;printName() {&lt;br&gt;&lt;br&gt;console.log(this)&lt;br&gt;}&lt;br&gt;}" style="whiteSpace=wrap;html=1;" vertex="1" parent="1">
                    <mxGeometry x="90" y="80" width="120" height="140" as="geometry"/>
                </mxCell>
                <mxCell id="3" value="Obj" style="text;html=1;align=center;verticalAlign=middle;resizable=0;points=[];autosize=1;strokeColor=none;fillColor=none;" vertex="1" parent="1">
                    <mxGeometry x="130" y="230" width="30" height="20" as="geometry"/>
                </mxCell>
                <mxCell id="4" value="{&lt;br&gt;&lt;br&gt;name -&amp;gt; Trikha&lt;br&gt;}" style="whiteSpace=wrap;html=1;" vertex="1" parent="1">
                    <mxGeometry x="90" y="300" width="120" height="120" as="geometry"/>
                </mxCell>
                <mxCell id="5" value="obj2" style="text;html=1;align=center;verticalAlign=middle;resizable=0;points=[];autosize=1;strokeColor=none;fillColor=none;" vertex="1" parent="1">
                    <mxGeometry x="130" y="420" width="40" height="20" as="geometry"/>
                </mxCell>
                <mxCell id="7" style="edgeStyle=none;html=1;entryX=1.008;entryY=0.322;entryDx=0;entryDy=0;entryPerimeter=0;" edge="1" parent="1" source="6" target="4">
                    <mxGeometry relative="1" as="geometry"/>
                </mxCell>
                <mxCell id="6" value="this" style="whiteSpace=wrap;html=1;" vertex="1" parent="1">
                    <mxGeometry x="300" y="140" width="120" height="60" as="geometry"/>
                </mxCell>
            </root>
        </mxGraphModel>
    </diagram>
</mxfile>